<svg
          viewBox="0 0 350 184.6734437597503"
          preserveAspectRatio="xMidYMid meet"
          class="css-g5ufxp"
          id="acdcaccg"
        >
          <defs id="SvgjsDefs1355"></defs>
          <g
            id="SvgjsG1356"
            featurekey="X3o6dM-0"
            transform="matrix(11.87589145650799,0,0,11.87589145650799,2.491702419375507,-128.23701250729783)"
            fill="#111"
          >
            <path d="M4.44 15.76 q-0.1 0.98 -0.12 1.72 t-0.04 1.36 q0.74 -0.92 1.26 -2.36 q0.06 -0.2 0.19 -0.27 t0.26 -0.03 t0.2 0.16 t0.01 0.32 q-0.36 1.18 -0.89 1.99 t-1.11 1.35 q-0.04 0.32 -0.11 0.64 t-0.17 0.66 q-0.32 1 -0.91 1.47 t-1.2 0.56 t-1.14 -0.13 t-0.71 -0.6 q-0.3 -0.64 -0.07 -1.13 t0.73 -0.83 t1.1 -0.53 t1.04 -0.23 l0.06 -0.54 q-0.16 0.22 -0.43 0.38 t-0.69 0.16 q-0.74 0 -1.16 -0.42 t-0.57 -1.06 t-0.06 -1.38 t0.37 -1.37 t0.74 -1.04 t1.06 -0.41 q0.36 0 0.7 0.24 q0.4 0.28 0.58 0.68 q0.18 -0.04 0.37 -0.03 t0.36 0.08 t0.27 0.22 t0.08 0.37 z M2.68 18.18 q0.18 -0.46 0.24 -1 t0.01 -1 t-0.21 -0.79 t-0.4 -0.37 q-0.26 -0.04 -0.47 0.25 t-0.36 0.74 t-0.21 0.98 t-0.01 0.99 t0.22 0.77 t0.49 0.31 q0.16 0 0.27 -0.09 t0.18 -0.22 t0.13 -0.29 t0.12 -0.28 z M2.64 20.62 q-0.58 0.1 -1.07 0.41 t-0.59 0.87 q-0.06 0.32 0.11 0.48 t0.43 0.08 t0.56 -0.45 t0.5 -1.11 z M7.9 14.54 q0.28 0.06 0.49 0.26 t0.35 0.44 q0.16 -0.18 0.4 -0.2 t0.46 0.07 t0.36 0.28 t0.1 0.45 q-0.08 0.36 -0.15 0.9 t-0.09 1.04 t0.03 0.86 t0.21 0.36 q0.12 0 0.29 -0.31 t0.34 -0.73 t0.31 -0.84 t0.18 -0.64 q0.06 -0.2 0.2 -0.27 t0.27 -0.04 t0.22 0.15 t0.03 0.3 q-0.04 0.12 -0.13 0.45 t-0.23 0.73 t-0.33 0.83 t-0.44 0.76 t-0.56 0.51 t-0.67 0.08 q-0.58 -0.16 -0.84 -0.7 q-0.16 0.48 -0.44 0.87 t-0.72 0.57 q-0.42 0.14 -0.74 0.06 q-0.58 -0.16 -0.92 -0.72 t-0.46 -1.3 t-0.02 -1.54 t0.41 -1.44 t0.83 -1.01 t1.26 -0.23 z M8.42 16.56 q-0.04 -0.34 -0.15 -0.66 t-0.33 -0.36 q-0.32 -0.06 -0.57 0.23 t-0.41 0.77 t-0.23 1.05 t-0.04 1.08 t0.16 0.87 t0.39 0.4 t0.49 -0.28 t0.4 -0.82 t0.26 -1.11 t0.03 -1.17 z M11.52 11.64 q0 -0.48 0.26 -0.67 t0.57 -0.17 t0.54 0.22 t0.17 0.52 q-0.04 0.24 -0.13 0.94 t-0.17 1.61 t-0.14 1.89 t-0.07 1.81 t0.06 1.36 t0.27 0.53 q0.12 0 0.33 -0.44 t0.42 -1 t0.39 -1.09 t0.24 -0.69 q0.04 -0.18 0.18 -0.24 t0.27 -0.03 t0.22 0.14 t0.03 0.29 q-0.12 0.4 -0.32 1.12 t-0.5 1.42 t-0.72 1.22 t-1 0.52 q-0.54 0 -0.81 -0.57 t-0.37 -1.45 t-0.07 -1.96 t0.11 -2.11 t0.16 -1.88 t0.08 -1.29 z M16.62 14.54 q0.28 0.06 0.49 0.26 t0.35 0.44 q0.16 -0.18 0.4 -0.2 t0.46 0.07 t0.36 0.28 t0.1 0.45 q-0.08 0.36 -0.15 0.9 t-0.09 1.04 t0.03 0.86 t0.21 0.36 q0.12 0 0.29 -0.31 t0.34 -0.73 t0.31 -0.84 t0.18 -0.64 q0.06 -0.2 0.2 -0.27 t0.27 -0.04 t0.22 0.15 t0.03 0.3 q-0.04 0.12 -0.13 0.45 t-0.23 0.73 t-0.33 0.83 t-0.44 0.76 t-0.56 0.51 t-0.67 0.08 q-0.58 -0.16 -0.84 -0.7 q-0.16 0.48 -0.44 0.87 t-0.72 0.57 q-0.42 0.14 -0.74 0.06 q-0.58 -0.16 -0.92 -0.72 t-0.46 -1.3 t-0.02 -1.54 t0.41 -1.44 t0.83 -1.01 t1.26 -0.23 z M17.14 16.56 q-0.04 -0.34 -0.15 -0.66 t-0.33 -0.36 q-0.32 -0.06 -0.57 0.23 t-0.41 0.77 t-0.23 1.05 t-0.04 1.08 t0.16 0.87 t0.39 0.4 t0.49 -0.28 t0.4 -0.82 t0.26 -1.11 t0.03 -1.17 z M23.18 14.68 q0.16 -0.26 0.46 -0.32 t0.57 -0.01 t0.42 0.19 t0.01 0.28 q-0.16 0.18 -0.64 0.86 t-1.1 1.56 q0.26 0.68 0.57 1.17 t0.65 0.49 q0.12 0 0.3 -0.3 t0.35 -0.7 t0.31 -0.8 t0.2 -0.62 q0.04 -0.2 0.18 -0.27 t0.28 -0.04 t0.23 0.15 t0.03 0.3 q-0.04 0.12 -0.12 0.41 t-0.21 0.67 t-0.31 0.78 t-0.4 0.74 t-0.48 0.56 t-0.58 0.22 q-0.54 0 -1.04 -0.4 t-0.92 -1.02 q-0.3 0.44 -0.59 0.84 t-0.57 0.74 q-0.18 0.22 -0.37 0.24 t-0.31 -0.08 t-0.14 -0.3 t0.16 -0.44 q0.64 -0.86 1.3 -1.92 q-0.42 -0.84 -0.64 -1.68 q-0.06 0.16 -0.12 0.36 l-0.12 0.4 q-0.06 0.16 -0.2 0.23 t-0.27 0.04 t-0.21 -0.14 t0 -0.29 q0.06 -0.16 0.18 -0.52 l0.24 -0.72 q0.14 -0.42 0.3 -0.92 l0 0.02 q0.08 -0.24 0.36 -0.32 t0.59 -0.04 t0.55 0.19 t0.24 0.39 q-0.02 0.2 0.03 0.51 t0.13 0.69 q0.22 -0.4 0.4 -0.7 t0.3 -0.48 z M28.979999999999997 22.42 q0 0.4 -0.26 0.72 t-0.57 0.48 t-0.56 0.12 t-0.21 -0.38 q0.02 -0.26 0.05 -0.74 t0.07 -1.08 t0.07 -1.29 t0.07 -1.39 q-0.2 0.54 -0.56 0.92 q-0.2 0.2 -0.47 0.22 t-0.52 -0.1 t-0.45 -0.35 t-0.26 -0.53 t-0.08 -0.8 t-0.02 -1.08 t0.02 -1.19 t0.02 -1.17 q0.02 -0.36 0.27 -0.53 t0.55 -0.2 t0.55 0.08 t0.23 0.33 q-0.04 0.64 -0.1 1.38 t-0.11 1.39 t-0.04 1.1 t0.13 0.49 t0.23 -0.16 t0.22 -0.54 t0.21 -0.75 t0.17 -0.8 t0.12 -0.7 t0.05 -0.45 q0.24 -0.12 0.31 0 t0.13 0.44 q0.02 0.08 0.01 0.39 t-0.08 0.74 t-0.2 0.93 t-0.33 0.94 q0.06 -1.1 0.1 -2.09 t0.06 -1.57 q0 -0.24 0.24 -0.37 t0.52 -0.14 t0.5 0.11 t0.2 0.36 q-0.06 0.42 -0.1 1.08 t-0.07 1.41 t-0.05 1.52 t-0.03 1.43 t-0.02 1.15 t-0.01 0.67 z"></path>
          </g>
          <g
            id="SvgjsG1357"
            featurekey="RFbU7s-0"
            transform="matrix(0.7412113918402797,0,0,0.7412113918402797,34.110546471166515,169.70097307907724)"
            fill="#111"
          >
            <path d="M10.5 6 l2.62 0 l0 14 l-2 0 l-7.3 -9.22 l0 9.22 l-2.62 0 l0 -14 l2.02 0 l7.28 9.24 l0 -9.24 z M38.08 8.38 l-6.02 0 l0 3.46 l4.96 0 l0 2.24 l-4.96 0 l0 5.92 l-2.7 0 l0 -14 l8.72 0 l0 2.38 z M63.220000000000006 6 l0 2.42 l-3.6 0 l0 11.58 l-2.62 0 l0 -11.58 l-3.58 0 l0 -2.42 l9.8 0 z M113.80000000000001 6 l0 14 l-2.7 0 l0 -8.12 l-3.64 8.12 l-2.24 0 l-3.62 -8.08 l0 8.08 l-2.7 0 l0 -14 l2.6 0 l4.86 10.48 l4.84 -10.48 l2.6 0 z M141.26000000000002 20 l-1.16 -2.7 l-6.92 0 l-1.16 2.7 l-2.78 0 l6.24 -14 l2.34 0 l6.22 14 l-2.78 0 z M134.10000000000002 15.16 l5.08 0 l-2.54 -5.92 z M170.32000000000002 20 l-2.78 0 l-3.12 -4.76 l-0.12 0 l-2.2 0 l0 4.76 l-2.62 0 l0 -14 l4.82 0 c3.14 0 5.12 1.92 5.12 4.7 c0 1.94 -0.96 3.38 -2.6 4.08 z M162.10000000000002 8.42 l0 4.56 l2.06 0 c1.58 0 2.64 -0.68 2.64 -2.28 c0 -1.58 -1.06 -2.28 -2.64 -2.28 l-2.06 0 z M195.04000000000002 20 l-4.6 -6.1 l-1.78 2 l0 4.1 l-2.7 0 l0 -14 l2.7 0 l0 6.4 l5.56 -6.4 l3.24 0 l-5.38 6.06 l6 7.94 l-3.04 0 z M216.24 17.58 l6.1 0 l0 2.42 l-6.5 0 l-2.22 0 l0 -14 l2.62 0 l5.92 0 l0 2.42 l-5.92 0 l0 3.36 l4.5 0 l0 2.36 l-4.5 0 l0 3.44 z M247.68 6 l0 2.42 l-3.6 0 l0 11.58 l-2.62 0 l0 -11.58 l-3.58 0 l0 -2.42 l9.8 0 z M268.34 6 c3.14 0 5.12 1.92 5.12 4.7 s-1.98 4.54 -5.12 4.54 l-2.2 0 l0 4.76 l-2.62 0 l0 -14 l4.82 0 z M268.2 12.98 c1.58 0 2.64 -0.68 2.64 -2.28 c0 -1.58 -1.06 -2.28 -2.64 -2.28 l-2.06 0 l0 4.56 l2.06 0 z M291.82 17.58 l5.68 0 l0 2.42 l-8.3 0 l0 -14 l2.62 0 l0 11.58 z M324.56 20 l-1.16 -2.7 l-6.92 0 l-1.16 2.7 l-2.78 0 l6.24 -14 l2.34 0 l6.22 14 l-2.78 0 z M317.4 15.16 l5.08 0 l-2.54 -5.92 z M354.5 18.5 c-1.26 1.1 -2.9 1.7 -4.76 1.7 c-3.84 0 -7.26 -2.96 -7.26 -7.2 s3.42 -7.2 7.26 -7.2 c1.84 0 3.46 0.6 4.68 1.66 l-1.58 1.8 c-0.8 -0.6 -1.86 -1 -2.94 -1 c-2.6 0 -4.7 1.98 -4.7 4.74 s2.1 4.74 4.7 4.74 c1.1 0 2.2 -0.42 3.02 -1.08 z M372.85999999999996 17.58 l6.1 0 l0 2.42 l-6.5 0 l-2.22 0 l0 -14 l2.62 0 l5.92 0 l0 2.42 l-5.92 0 l0 3.36 l4.5 0 l0 2.36 l-4.5 0 l0 3.44 z"></path>
          </g>
        </svg>